<svg width="124" height="124" xmlns="http://www.w3.org/2000/svg" xmlns:xlink="http://www.w3.org/1999/xlink" xml:space="preserve" overflow="hidden"><g transform="translate(-939 -102)"><path d="M1015.6 150.179C1010.17 150.179 1005.91 145.788 1005.91 140.492 1005.91 135.196 1010.3 130.804 1015.6 130.804 1021.02 130.804 1025.28 135.196 1025.28 140.492 1025.28 145.788 1020.89 150.179 1015.6 150.179ZM1037.43 134.421C1036.91 132.613 1036.26 130.933 1035.36 129.383L1037.43 123.312 1032.78 118.662 1026.7 120.729C1025.15 119.825 1023.47 119.179 1021.67 118.662L1018.83 112.979 1012.37 112.979 1009.53 118.662C1007.72 119.179 1006.04 119.825 1004.49 120.729L998.417 118.662 993.767 123.312 995.833 129.383C994.929 130.933 994.283 132.613 993.767 134.421L988.083 137.262 988.083 143.721 993.767 146.562C994.283 148.371 994.929 150.05 995.833 151.6L993.767 157.671 998.287 162.192 1004.36 160.125C1005.91 161.029 1007.59 161.675 1009.4 162.192L1012.24 167.875 1018.7 167.875 1021.54 162.192C1023.35 161.675 1025.03 161.029 1026.57 160.125L1032.65 162.192 1037.3 157.671 1035.23 151.6C1036.13 150.05 1036.91 148.242 1037.43 146.562L1043.11 143.721 1043.11 137.262 1037.43 134.421Z" fill="#99BAD7"/><path d="M986.404 197.196C980.979 197.196 976.717 192.804 976.717 187.508 976.717 182.083 981.108 177.821 986.404 177.821 991.829 177.821 996.092 182.212 996.092 187.508 996.092 192.804 991.829 197.196 986.404 197.196L986.404 197.196ZM1006.17 176.4 1008.23 170.329 1003.58 165.679 997.513 167.746C995.963 166.842 994.154 166.196 992.475 165.679L989.633 159.996 983.175 159.996 980.333 165.679C978.525 166.196 976.846 166.842 975.296 167.746L969.225 165.679 964.704 170.2 966.642 176.271C965.737 177.821 965.092 179.629 964.575 181.308L958.892 184.15 958.892 190.608 964.575 193.45C965.092 195.258 965.737 196.938 966.642 198.487L964.704 204.558 969.225 209.079 975.296 207.142C976.846 208.046 978.525 208.692 980.333 209.208L983.175 214.892 989.633 214.892 992.475 209.208C994.283 208.692 995.963 208.046 997.513 207.142L1003.58 209.208 1008.1 204.558 1006.17 198.617C1007.07 197.067 1007.72 195.388 1008.23 193.579L1013.92 190.737 1013.92 184.279 1008.23 181.438C1007.72 179.629 1007.07 177.95 1006.17 176.4Z" fill="#99BAD7"/></g></svg>