<svg width="125" height="124" xmlns="http://www.w3.org/2000/svg" xmlns:xlink="http://www.w3.org/1999/xlink" xml:space="preserve" overflow="hidden"><g transform="translate(-705 -280)"><path d="M76.5958 48.1792C71.1708 48.1792 66.9083 43.7875 66.9083 38.4917 66.9083 33.1958 71.3 28.8042 76.5958 28.8042 82.0208 28.8042 86.2833 33.1958 86.2833 38.4917 86.2833 43.7875 81.8917 48.1792 76.5958 48.1792ZM98.425 32.4208C97.9083 30.6125 97.2625 28.9333 96.3583 27.3833L98.425 21.3125 93.775 16.6625 87.7042 18.7292C86.1542 17.825 84.475 17.1792 82.6667 16.6625L79.825 10.9792 73.3667 10.9792 70.525 16.6625C68.7167 17.1792 67.0375 17.825 65.4875 18.7292L59.4167 16.6625 54.7667 21.3125 56.8333 27.3833C55.9292 28.9333 55.2833 30.6125 54.7667 32.4208L49.0833 35.2625 49.0833 41.7208 54.7667 44.5625C55.2833 46.3708 55.9292 48.05 56.8333 49.6L54.7667 55.6708 59.2875 60.1917 65.3583 58.125C66.9083 59.0292 68.5875 59.675 70.3958 60.1917L73.2375 65.875 79.6958 65.875 82.5375 60.1917C84.3458 59.675 86.025 59.0292 87.575 58.125L93.6458 60.1917 98.2958 55.6708 96.2292 49.6C97.1333 48.05 97.9083 46.2417 98.425 44.5625L104.108 41.7208 104.108 35.2625 98.425 32.4208Z" fill="#DBEFF9" transform="matrix(1.00806 0 0 1 705 280)"/><path d="M47.4042 95.1958C41.9792 95.1958 37.7167 90.8042 37.7167 85.5083 37.7167 80.0833 42.1083 75.8208 47.4042 75.8208 52.8292 75.8208 57.0917 80.2125 57.0917 85.5083 57.0917 90.8042 52.8292 95.1958 47.4042 95.1958L47.4042 95.1958ZM67.1667 74.4 69.2333 68.3292 64.5833 63.6792 58.5125 65.7458C56.9625 64.8417 55.1542 64.1958 53.475 63.6792L50.6333 57.9958 44.175 57.9958 41.3333 63.6792C39.525 64.1958 37.8458 64.8417 36.2958 65.7458L30.225 63.6792 25.7042 68.2 27.6417 74.2708C26.7375 75.8208 26.0917 77.6292 25.575 79.3083L19.8917 82.15 19.8917 88.6083 25.575 91.45C26.0917 93.2583 26.7375 94.9375 27.6417 96.4875L25.7042 102.558 30.225 107.079 36.2958 105.142C37.8458 106.046 39.525 106.692 41.3333 107.208L44.175 112.892 50.6333 112.892 53.475 107.208C55.2833 106.692 56.9625 106.046 58.5125 105.142L64.5833 107.208 69.1042 102.558 67.1667 96.6167C68.0708 95.0667 68.7167 93.3875 69.2333 91.5792L74.9167 88.7375 74.9167 82.2792 69.2333 79.4375C68.7167 77.6292 68.0708 75.95 67.1667 74.4Z" fill="#DBEFF9" transform="matrix(1.00806 0 0 1 705 280)"/></g></svg>