<svg width="124" height="124" xmlns="http://www.w3.org/2000/svg" xmlns:xlink="http://www.w3.org/1999/xlink" xml:space="preserve" overflow="hidden"><g transform="translate(-225 -142)"><path d="M287 198.833C280.542 198.833 275.375 193.667 275.375 187.208 275.375 180.75 280.542 175.583 287 175.583 293.458 175.583 298.625 180.75 298.625 187.208 298.625 193.667 293.458 198.833 287 198.833ZM287 160.083C278.087 160.083 269.692 164.475 264.654 171.967 259.617 179.329 258.583 188.758 261.812 197.154L274.083 224.279 284.675 246.496C285.062 247.4 285.967 247.917 287 247.917 288.033 247.917 288.938 247.4 289.325 246.496L299.917 224.279 312.188 197.154C315.417 188.758 314.383 179.329 309.346 171.967 304.308 164.475 295.913 160.083 287 160.083Z" fill="#E0144C"/></g></svg>