<svg width="124" height="124" xmlns="http://www.w3.org/2000/svg" xmlns:xlink="http://www.w3.org/1999/xlink" xml:space="preserve" overflow="hidden"><g transform="translate(-725 -106)"><path d="M787 162.833C780.542 162.833 775.375 157.667 775.375 151.208 775.375 144.75 780.542 139.583 787 139.583 793.458 139.583 798.625 144.75 798.625 151.208 798.625 157.667 793.458 162.833 787 162.833ZM787 124.083C778.088 124.083 769.692 128.475 764.654 135.967 759.617 143.329 758.583 152.758 761.812 161.154L774.083 188.279 784.675 210.496C785.062 211.4 785.967 211.917 787 211.917 788.033 211.917 788.938 211.4 789.325 210.496L799.917 188.279 812.188 161.154C815.417 152.758 814.383 143.329 809.346 135.967 804.308 128.475 795.912 124.083 787 124.083Z" fill="#99BAD7"/></g></svg>