<svg width="112" height="112" xmlns="http://www.w3.org/2000/svg" xmlns:xlink="http://www.w3.org/1999/xlink" xml:space="preserve" overflow="hidden"><g transform="translate(-589 -382)"><path d="M673.583 455.617C671.717 453.75 668.917 452.817 666.35 453.4L661.1 448.267C665.767 442.2 668.333 434.733 668.333 427.033 668.45 407.55 652.7 391.8 633.333 391.683 613.967 391.567 598.217 407.317 598.1 426.683 597.983 446.05 613.733 461.8 633.1 461.917 640.8 461.917 648.383 459.35 654.567 454.683L659.7 459.817C659.233 462.5 660.05 465.183 661.917 467.167L676.5 481.75C679.65 484.9 684.9 484.9 688.05 481.75 691.2 478.6 691.2 473.35 688.05 470.2L673.583 455.617ZM633.333 454.917C617.817 454.917 605.333 442.433 605.333 426.917 605.333 411.4 617.817 398.917 633.333 398.917 648.85 398.917 661.333 411.4 661.333 426.917 661.333 442.317 648.733 454.917 633.333 454.917Z" fill="#DBEFF9"/><path d="M658.417 425.167 651.767 425.167C651.183 425.283 650.6 425.633 650.25 426.1L645.817 430.883 642.083 417.933C641.733 416.883 640.567 416.183 639.517 416.533 638.933 416.767 638.35 417.117 638.117 417.817L631.117 436.367 626.333 410.7C626.1 409.533 625.05 408.833 624 409.067 623.3 409.183 622.717 409.767 622.367 410.467L617.35 425.167 608.25 425.167 608.25 429.833 618.867 429.833C619.8 429.717 620.617 429.017 620.85 428.083L623.767 419.217 628.433 444.3C628.55 445.233 629.367 445.933 630.3 445.933L630.533 445.933C631.35 445.933 632.167 445.467 632.517 444.65L639.983 425.05 643.017 435.55C643.367 436.6 644.417 437.3 645.583 436.95 645.933 436.833 646.283 436.6 646.517 436.367L652.817 429.833 658.533 429.833 658.533 425.167Z" fill="#DBEFF9"/></g></svg>