<svg width="112" height="112" xmlns="http://www.w3.org/2000/svg" xmlns:xlink="http://www.w3.org/1999/xlink" xml:space="preserve" overflow="hidden"><g transform="translate(-823 -204)"><path d="M907.583 277.617C905.717 275.75 902.917 274.817 900.35 275.4L895.1 270.267C899.767 264.2 902.333 256.733 902.333 249.033 902.45 229.55 886.7 213.8 867.333 213.683 847.967 213.567 832.217 229.317 832.1 248.683 831.983 268.05 847.733 283.8 867.1 283.917 874.8 283.917 882.383 281.35 888.567 276.683L893.7 281.817C893.233 284.5 894.05 287.183 895.917 289.167L910.5 303.75C913.65 306.9 918.9 306.9 922.05 303.75 925.2 300.6 925.2 295.35 922.05 292.2L907.583 277.617ZM867.333 276.917C851.817 276.917 839.333 264.433 839.333 248.917 839.333 233.4 851.817 220.917 867.333 220.917 882.85 220.917 895.333 233.4 895.333 248.917 895.333 264.317 882.733 276.917 867.333 276.917Z" fill="#99BAD7"/><path d="M892.417 247.167 885.767 247.167C885.183 247.283 884.6 247.633 884.25 248.1L879.817 252.883 876.083 239.933C875.733 238.883 874.567 238.183 873.517 238.533 872.933 238.767 872.35 239.117 872.117 239.817L865.117 258.367 860.333 232.7C860.1 231.533 859.05 230.833 858 231.067 857.3 231.183 856.717 231.767 856.367 232.467L851.35 247.167 842.25 247.167 842.25 251.833 852.867 251.833C853.8 251.717 854.617 251.017 854.85 250.083L857.767 241.217 862.433 266.3C862.55 267.233 863.367 267.933 864.3 267.933L864.533 267.933C865.35 267.933 866.167 267.467 866.517 266.65L873.983 247.05 877.017 257.55C877.367 258.6 878.417 259.3 879.583 258.95 879.933 258.833 880.283 258.6 880.517 258.367L886.817 251.833 892.533 251.833 892.533 247.167Z" fill="#99BAD7"/></g></svg>