<svg width="112" height="112" xmlns="http://www.w3.org/2000/svg" xmlns:xlink="http://www.w3.org/1999/xlink" xml:space="preserve" overflow="hidden"><g transform="translate(-323 -239)"><path d="M407.583 312.617C405.717 310.75 402.917 309.817 400.35 310.4L395.1 305.267C399.767 299.2 402.333 291.733 402.333 284.033 402.45 264.55 386.7 248.8 367.333 248.683 347.967 248.567 332.217 264.317 332.1 283.683 331.983 303.05 347.733 318.8 367.1 318.917 374.8 318.917 382.383 316.35 388.567 311.683L393.7 316.817C393.233 319.5 394.05 322.183 395.917 324.167L410.5 338.75C413.65 341.9 418.9 341.9 422.05 338.75 425.2 335.6 425.2 330.35 422.05 327.2L407.583 312.617ZM367.333 311.917C351.817 311.917 339.333 299.433 339.333 283.917 339.333 268.4 351.817 255.917 367.333 255.917 382.85 255.917 395.333 268.4 395.333 283.917 395.333 299.317 382.733 311.917 367.333 311.917Z" fill="#E0144C"/><path d="M392.417 282.167 385.767 282.167C385.183 282.283 384.6 282.633 384.25 283.1L379.817 287.883 376.083 274.933C375.733 273.883 374.567 273.183 373.517 273.533 372.933 273.767 372.35 274.117 372.117 274.817L365.117 293.367 360.333 267.7C360.1 266.533 359.05 265.833 358 266.067 357.3 266.183 356.717 266.767 356.367 267.467L351.35 282.167 342.25 282.167 342.25 286.833 352.867 286.833C353.8 286.717 354.617 286.017 354.85 285.083L357.767 276.217 362.433 301.3C362.55 302.233 363.367 302.933 364.3 302.933L364.533 302.933C365.35 302.933 366.167 302.467 366.517 301.65L373.983 282.05 377.017 292.55C377.367 293.6 378.417 294.3 379.583 293.95 379.933 293.833 380.283 293.6 380.517 293.367L386.817 286.833 392.533 286.833 392.533 282.167Z" fill="#E0144C"/></g></svg>